<svg xmlns="http://www.w3.org/2000/svg" viewBox="0 0 1600 900" role="img" aria-label="Nordic hot tub in winter landscape">
  <defs>
    <linearGradient id="sky" x1="0" y1="0" x2="0" y2="1">
      <stop offset="0%" stop-color="#9cc3cc"/>
      <stop offset="100%" stop-color="#21424a"/>
    </linearGradient>
    <linearGradient id="snow" x1="0" y1="0" x2="0" y2="1">
      <stop offset="0%" stop-color="#edf4f6"/>
      <stop offset="100%" stop-color="#cfdde0"/>
    </linearGradient>
    <linearGradient id="wood" x1="0" y1="0" x2="1" y2="0">
      <stop offset="0%" stop-color="#9f6f48"/>
      <stop offset="100%" stop-color="#6f4b30"/>
    </linearGradient>
  </defs>

  <rect width="1600" height="900" fill="url(#sky)"/>

  <path d="M0 480 L260 360 L520 470 L820 320 L1150 470 L1420 350 L1600 430 L1600 900 L0 900 Z" fill="#2a4f55"/>
  <path d="M0 560 L220 500 L520 620 L820 520 L1120 640 L1420 540 L1600 600 L1600 900 L0 900 Z" fill="url(#snow)"/>

  <g opacity="0.9">
    <polygon points="140,590 180,480 220,590" fill="#1f3d40"/>
    <polygon points="260,620 305,500 350,620" fill="#1f3d40"/>
    <polygon points="1340,610 1385,490 1430,610" fill="#1f3d40"/>
    <polygon points="1460,640 1510,510 1560,640" fill="#1f3d40"/>
  </g>

  <ellipse cx="820" cy="650" rx="280" ry="55" fill="#4f6970"/>
  <rect x="560" y="560" width="520" height="120" rx="24" fill="url(#wood)"/>
  <ellipse cx="820" cy="560" rx="260" ry="52" fill="#6d4a2f"/>
  <ellipse cx="820" cy="560" rx="235" ry="38" fill="#8ec1c9"/>

  <g fill="none" stroke="#dceff2" stroke-width="10" stroke-linecap="round" opacity="0.8">
    <path d="M720 510 C700 470, 705 450, 725 420"/>
    <path d="M820 500 C800 460, 805 440, 825 410"/>
    <path d="M920 510 C900 470, 905 450, 925 420"/>
  </g>
</svg>
